<?xml version="1.0" standalone="no"?>
<!DOCTYPE svg PUBLIC "-//W3C//DTD SVG 20010904//EN"
 "http://www.w3.org/TR/2001/REC-SVG-20010904/DTD/svg10.dtd">
<svg version="1.0" xmlns="http://www.w3.org/2000/svg"
 width="652.000000pt" height="660.000000pt" viewBox="0 0 652.000000 660.000000"
 preserveAspectRatio="xMidYMid meet">

<g transform="translate(0.000000,660.000000) scale(0.100000,-0.100000)"
fill="#000000" stroke="none">
<path d="M3330 6594 c-623 -55 -1171 -266 -1635 -630 -152 -119 -373 -337
-482 -476 -45 -57 -47 -58 -82 -51 -58 12 -289 8 -371 -6 -363 -63 -635 -279
-680 -540 -42 -241 144 -489 459 -613 53 -20 80 -36 77 -44 -22 -58 -56 -341
-63 -529 -21 -605 157 -1232 494 -1738 l73 -109 -34 -41 c-47 -59 -63 -94 -77
-169 -20 -111 18 -245 97 -337 l35 -40 -29 -58 c-35 -70 -44 -104 -33 -122 12
-19 42 -6 49 22 3 12 23 55 44 96 l39 74 -45 46 c-85 87 -127 236 -96 345 17
63 86 145 151 181 50 28 62 30 154 30 92 0 104 -2 148 -28 102 -60 149 -130
169 -249 13 -75 21 -90 45 -81 20 8 16 100 -7 168 -11 32 -19 59 -18 59 163
73 244 134 432 324 76 77 107 115 103 126 -13 33 -45 13 -167 -108 -103 -102
-139 -131 -205 -164 -44 -22 -102 -59 -129 -81 -26 -23 -55 -41 -63 -41 -8 0
-29 14 -46 31 -66 66 -161 109 -244 109 -27 0 -38 9 -80 67 -250 345 -427 783
-488 1213 -35 242 -30 601 11 842 23 138 18 132 105 129 101 -3 235 15 349 46
52 14 102 25 110 25 20 -1 193 -75 377 -162 82 -38 137 -62 123 -52 -51 35
-158 132 -188 170 -33 41 -82 137 -82 160 0 7 31 44 69 82 99 98 151 205 158
322 9 144 -42 270 -156 384 -63 63 -202 159 -248 170 -13 4 -23 10 -23 14 0
12 162 184 255 270 433 401 990 651 1584 710 225 22 516 10 751 -31 501 -87
988 -329 1366 -680 473 -438 759 -982 861 -1639 25 -164 25 -586 -1 -755 -62
-412 -212 -806 -432 -1135 -35 -52 -74 -108 -87 -124 l-23 -28 -55 30 c-29 17
-96 49 -146 71 -51 22 -123 55 -160 72 -38 18 -114 51 -171 75 -106 45 -200
97 -253 141 -62 52 -160 192 -195 277 -77 189 -152 856 -179 1586 -26 705 -44
982 -71 1118 -50 247 -225 672 -280 680 -20 3 -20 -1 -20 -220 1 -231 -4 -269
-50 -360 l-14 -27 -72 34 c-152 69 -340 100 -534 88 l-90 -6 -27 89 c-32 110
-45 179 -53 301 -7 97 -18 119 -48 94 -21 -18 -126 -370 -148 -499 l-12 -72
-51 -29 c-125 -70 -206 -161 -275 -306 -60 -126 -93 -327 -109 -665 l-9 -185
-43 -38 c-53 -47 -191 -115 -319 -157 -279 -91 -464 -234 -594 -460 -125 -218
-167 -444 -125 -680 19 -103 90 -253 152 -319 83 -87 252 -182 361 -203 37 -7
66 -15 66 -18 0 -4 -19 -16 -42 -29 -111 -59 -328 -184 -333 -190 -2 -5 2 -16
9 -26 12 -17 25 -12 192 79 199 109 224 127 206 149 -10 12 2 16 78 26 49 6
118 20 152 31 35 11 66 20 71 20 4 0 7 -31 7 -68 0 -64 -2 -70 -32 -99 -18
-17 -64 -51 -101 -76 l-69 -45 54 -40 c30 -22 78 -52 106 -67 l52 -27 -19 -27
c-10 -14 -35 -57 -56 -96 -21 -38 -52 -92 -70 -120 -69 -110 -145 -312 -145
-386 0 -15 -10 -18 -82 -17 -96 1 -162 -20 -156 -49 3 -13 11 -17 33 -15 108
11 192 6 236 -15 101 -46 170 -134 190 -243 27 -149 -53 -289 -201 -350 -32
-13 -38 -31 -16 -49 32 -27 165 58 217 138 23 37 37 50 48 45 154 -63 407
-125 656 -161 168 -24 572 -24 740 0 336 49 593 123 883 256 664 305 1210 866
1492 1536 252 596 306 1252 154 1873 -230 943 -898 1712 -1799 2070 -341 136
-667 200 -1045 206 -118 2 -235 2 -260 0z m-2215 -1205 c306 -38 556 -186 656
-388 27 -55 34 -80 37 -151 3 -54 -1 -101 -9 -130 l-14 -45 -3 78 c-4 97 -22
102 -22 5 l-1 -73 -68 74 c-38 40 -71 69 -74 65 -11 -20 -19 -184 -8 -184 6 0
11 17 12 38 0 20 3 54 7 75 l7 39 67 -80 66 -80 -33 -49 c-18 -28 -62 -75 -96
-106 l-62 -57 12 -52 c6 -29 23 -73 36 -97 14 -23 25 -45 25 -47 0 -2 -33 11
-72 28 -40 17 -98 41 -128 53 l-55 21 -65 -22 c-397 -134 -915 -14 -1115 257
-25 34 -45 64 -45 68 0 4 29 12 65 18 99 17 122 47 65 82 -27 16 -29 20 -15
31 8 7 15 19 15 26 0 23 -57 45 -107 42 l-47 -3 2 -70 c1 -54 -1 -65 -8 -47
-17 41 -22 125 -11 184 15 86 56 162 125 236 189 202 520 303 861 261z m-850
-593 l30 -14 -37 -16 c-47 -20 -77 -20 -84 -1 -17 42 30 58 91 31z m38 -85
c19 -20 -20 -41 -75 -41 -44 0 -48 2 -48 23 0 13 3 27 8 31 10 11 101 1 115
-13z m2617 -21 c40 -40 58 -134 37 -195 -16 -46 -65 -85 -107 -85 -108 0 -136
215 -38 284 32 22 84 20 108 -4z m682 0 c45 -26 77 -77 83 -130 12 -90 -50
-150 -150 -150 -98 1 -158 58 -159 151 -2 112 129 187 226 129z m498 -416 c0
-9 -10 -72 -22 -140 l-21 -123 -44 31 c-25 16 -47 27 -50 24 -3 -3 27 -41 68
-84 104 -109 192 -237 260 -377 82 -169 111 -305 113 -533 1 -160 -19 -255
-82 -376 -96 -186 -285 -334 -512 -400 -82 -24 -270 -46 -389 -46 -395 0 -653
144 -791 443 -48 104 -65 209 -64 402 1 153 4 179 28 260 33 111 103 259 161
339 93 130 187 209 338 282 53 26 72 44 46 44 -21 0 -159 -62 -201 -90 l-43
-29 -18 29 c-18 29 -124 116 -132 108 -2 -2 13 -29 34 -58 21 -30 43 -70 51
-88 l13 -32 -79 -83 c-159 -166 -244 -411 -244 -703 0 -186 24 -313 81 -434
l40 -85 -28 -23 c-76 -63 -266 -122 -387 -122 -120 1 -296 70 -395 157 -60 52
-132 157 -161 235 -26 70 -50 205 -50 283 0 222 110 478 285 664 115 122 205
172 478 267 91 32 244 116 304 168 47 41 52 42 96 20 57 -29 77 -54 77 -95 0
-29 5 -41 23 -51 41 -23 143 -13 262 26 60 20 213 57 340 81 126 25 289 56
360 70 72 14 150 32 175 39 60 19 80 19 80 0z m-980 -2398 c25 -8 99 -35 165
-61 66 -26 131 -50 145 -55 14 -4 54 -19 90 -33 36 -14 156 -59 267 -101 111
-41 228 -87 260 -102 32 -14 148 -62 258 -105 261 -104 281 -112 409 -167
l109 -47 -146 -70 c-251 -122 -572 -213 -842 -239 -234 -23 -557 -16 -712 15
-46 9 -53 14 -53 34 0 13 19 47 43 75 79 98 118 154 148 216 43 88 31 101 -21
24 -24 -36 -75 -106 -115 -155 -80 -101 -95 -125 -95 -154 0 -27 -12 -27 -135
4 -129 33 -149 39 -273 82 -103 36 -104 36 -123 81 -31 72 -83 134 -143 172
-63 40 -67 55 -41 145 16 55 17 56 205 178 l25 16 -3 -44 c-3 -35 0 -46 13
-51 24 -9 36 7 60 83 l22 68 154 88 c240 139 231 135 259 126 14 -4 45 -14 70
-23z"/>
<path d="M775 5037 c-8 -91 -5 -122 10 -122 6 0 11 44 13 103 3 124 -13 137
-23 19z"/>
<path d="M832 5085 c2 -14 8 -26 13 -26 6 0 11 12 13 26 2 18 -1 25 -13 25
-12 0 -15 -7 -13 -25z"/>
<path d="M896 5049 c-10 -100 -8 -151 7 -147 8 3 14 34 17 86 l5 82 44 -35
c24 -19 50 -35 57 -35 7 0 29 14 48 30 39 35 46 28 46 -45 0 -53 8 -75 26 -75
11 0 13 16 8 78 -10 140 -16 147 -79 82 -21 -22 -44 -40 -50 -40 -6 0 -29 18
-50 40 -56 58 -71 54 -79 -21z"/>
<path d="M360 4788 c0 -73 14 -106 53 -128 24 -13 30 -13 55 0 36 21 62 75 62
133 0 65 -16 59 -22 -8 -5 -62 -36 -105 -74 -105 -36 0 -54 36 -54 107 0 35
-4 63 -10 63 -6 0 -10 -27 -10 -62z"/>
<path d="M572 4842 c-24 -8 -11 -21 26 -24 28 -2 37 -8 39 -23 1 -11 5 -50 8
-87 4 -38 11 -68 16 -68 5 0 9 38 9 85 0 83 0 85 24 85 33 0 43 18 14 24 -37
8 -122 13 -136 8z"/>
<path d="M766 4843 c-13 -13 -5 -23 18 -23 49 0 56 -8 57 -74 1 -74 11 -117
23 -98 5 8 5 47 1 88 l-7 74 31 0 c36 0 51 18 19 24 -43 9 -136 14 -142 9z"/>
<path d="M990 4838 c-28 -15 -38 -52 -20 -74 7 -7 35 -21 62 -29 60 -17 79
-31 71 -51 -7 -19 -79 -18 -115 0 -19 10 -30 11 -34 4 -10 -16 24 -38 60 -40
86 -4 116 9 116 48 0 25 -25 42 -95 64 -57 18 -64 28 -36 51 26 21 53 18 84
-9 15 -14 17 -14 17 0 0 35 -68 57 -110 36z"/>
<path d="M1174 4818 c-13 -21 -18 -178 -5 -178 6 0 11 16 11 38 0 20 3 54 6
74 l7 38 34 -30 c41 -37 59 -37 94 -4 l28 27 5 -24 c3 -13 7 -42 8 -63 4 -54
28 -61 28 -8 0 67 -12 132 -25 132 -6 0 -30 -16 -52 -35 l-40 -34 -19 20 c-35
39 -72 61 -80 47z"/>
<path d="M1455 4749 c-20 -39 -35 -81 -33 -92 3 -20 5 -19 21 11 23 43 71 45
104 5 19 -24 22 -25 23 -9 0 24 -60 156 -71 156 -5 0 -25 -32 -44 -71z m54 4
c11 -21 9 -23 -13 -23 -24 0 -25 2 -14 25 6 14 12 24 13 23 1 -2 8 -13 14 -25z"/>
<path d="M2785 4570 c-7 -23 10 -50 31 -50 18 0 33 29 27 51 -7 26 -50 25 -58
-1z"/>
<path d="M3482 4598 c-25 -25 -6 -68 30 -68 9 0 22 9 28 19 13 25 13 27 -6 45
-19 19 -36 20 -52 4z"/>
<path d="M2133 1953 c-187 -196 -213 -227 -213 -246 0 -26 20 -30 42 -10 11
10 97 98 190 196 165 173 188 207 147 215 -10 2 -73 -57 -166 -155z"/>
<path d="M2353 1988 c-17 -24 -58 -90 -93 -148 -35 -58 -85 -137 -112 -177
-26 -40 -48 -81 -48 -91 0 -21 21 -34 37 -24 21 14 284 445 281 460 -6 33 -36
24 -65 -20z"/>
<path d="M1626 1167 c-36 -36 -60 -109 -52 -160 14 -94 99 -176 182 -177 24
-1 36 -10 67 -56 20 -30 37 -59 37 -64 0 -14 -81 -79 -129 -102 -107 -52 -261
-52 -372 1 -132 63 -208 169 -245 346 -7 30 -14 40 -29 40 -41 0 -25 -117 32
-229 31 -60 120 -152 187 -191 62 -36 165 -65 234 -65 120 0 257 53 339 132
l31 30 64 -25 c34 -14 87 -29 115 -33 45 -6 54 -4 59 11 9 21 -19 45 -53 45
-66 0 -185 67 -225 128 -24 37 -23 44 12 64 19 11 30 25 30 39 0 24 -12 23
-92 -7 -45 -18 -48 -18 -95 2 -29 12 -56 32 -70 53 -37 54 -28 138 19 188 41
44 -3 73 -46 30z"/>
</g>
</svg>
