<svg width="43" height="97" viewBox="0 0 43 97" fill="none" xmlns="http://www.w3.org/2000/svg">
<path d="M41.8987 31.9595C39.9764 32.6803 37.7236 33.5514 35.1405 34.5726L28.2921 37.1858C28.2921 34.3624 27.5112 32.9507 25.9493 32.9507C23.7265 32.9507 21.5038 34.2122 19.2811 36.7353C17.7192 38.5976 17.0884 40.3998 17.3888 42.1419C17.569 43.2833 18.6804 43.854 20.7229 43.854C21.9243 43.854 23.7265 43.6437 26.1295 43.2232C28.5324 42.8027 30.3346 42.5924 31.5361 42.5924C37.4834 42.5924 40.7574 44.9353 41.3581 49.621C42.079 55.328 39.3757 61.6958 33.2482 68.7244C33.2482 71.728 33.3083 74.6716 33.4284 77.5552L33.6987 86.3859L24.4174 91.6123L24.2372 76.5639C22.495 77.7654 20.843 78.6365 19.2811 79.1771L19.4613 85.1244C19.5214 87.1068 19.6115 89.0892 19.7317 91.0717L10.4503 96.2981L10.3602 81.0694C7.29648 81.0694 4.38292 80.3185 1.61954 78.8167C3.12137 75.2123 5.52431 69.8958 8.82835 62.8672C10.7507 64.1888 12.7932 64.8496 14.9558 64.8496C15.9771 64.8496 16.9983 64.6994 18.0196 64.3991C19.8819 63.9185 21.624 63.2276 23.246 62.3265C25.6489 61.0049 26.8504 59.6533 26.8504 58.2716C26.8504 56.7698 25.6189 56.0188 23.1559 56.0188C21.5339 56.0188 19.1009 56.3793 15.8569 57.1002C12.673 57.761 10.2401 58.0914 8.55802 58.0914C3.21148 58.0914 0.508182 55.8086 0.448109 51.243C0.327962 45.7763 3.45178 38.8979 9.81956 30.6078L9.63934 8.89127L19.8218 5.37697C19.6416 10.0026 19.4914 14.9587 19.3712 20.2451C20.6928 19.1037 22.1346 17.9624 23.6965 16.821L23.6064 4.29565L33.7888 0.69125L33.5185 12.3155C36.5823 11.955 38.9852 13.2166 40.7273 16.1001C41.8086 17.9624 42.3493 20.8459 42.3493 24.7506C42.3493 26.8532 42.1991 29.2561 41.8987 31.9595Z" fill="black"/>
</svg>
